<?xml version="1.0" encoding="UTF-8"?>
<svg xmlns="http://www.w3.org/2000/svg" xmlns:xlink="http://www.w3.org/1999/xlink" width="30px" height="41px" viewBox="0 0 30 41" version="1.1">
<g id="surface1">
<path style="fill:none;stroke-width:1;stroke-linecap:butt;stroke-linejoin:miter;stroke:rgb(18.431373%,24.313725%,22.352941%);stroke-opacity:1;stroke-miterlimit:4;" d="M 45.503646 0.497904 L 52.496354 0.497904 C 77.353646 0.497904 97.502344 20.643864 97.502344 45.500762 L 97.502344 88.499238 C 97.502344 113.356136 77.353646 133.502096 52.496354 133.502096 L 45.503646 133.502096 C 20.646354 133.502096 0.497656 113.356136 0.497656 88.499238 L 0.497656 45.500762 C 0.497656 20.643864 20.646354 0.497904 45.503646 0.497904 Z M 45.503646 0.497904 " transform="matrix(0.306122,0,0,0.30597,0,0)"/>
<path style=" stroke:none;fill-rule:nonzero;fill:rgb(18.431373%,24.313725%,22.352941%);fill-opacity:1;" d="M 17.359375 26.175781 L 18.265625 26.207031 L 20.21875 23.746094 C 20.65625 23.253906 20.523438 23.121094 20.945312 23.636719 C 21.644531 24.484375 22.328125 25.347656 23.023438 26.203125 L 23.980469 26.183594 C 23.125 25.128906 22.292969 24.054688 21.417969 23.011719 C 20.613281 22.050781 20.601562 22.152344 19.820312 23.074219 Z M 17.359375 26.175781 "/>
<path style=" stroke:none;fill-rule:nonzero;fill:rgb(18.431373%,24.313725%,22.352941%);fill-opacity:1;" d="M 19.808594 18.015625 L 19.011719 17.023438 C 18.640625 16.5625 19.035156 15.875 19.585938 16.558594 L 20.253906 17.382812 C 20.597656 17.785156 20.625 17.78125 21.035156 17.320312 L 21.570312 16.636719 C 22.046875 16.0625 22.613281 16.617188 22.191406 17.136719 L 21.429688 18.078125 C 21.0625 18.53125 21.050781 18.390625 21.414062 18.839844 L 24.785156 23.019531 C 25.128906 23.605469 24.511719 23.878906 24.058594 23.3125 L 20.921875 19.40625 C 20.667969 19.089844 20.597656 19.113281 20.378906 19.394531 L 15.078125 26.183594 L 13.996094 26.183594 L 19.796875 18.871094 C 20.144531 18.4375 20.105469 18.433594 19.808594 18.015625 Z M 19.808594 18.015625 "/>
<path style=" stroke:none;fill-rule:nonzero;fill:rgb(18.431373%,24.313725%,22.352941%);fill-opacity:1;" d="M 6.929688 22.363281 C 6.945312 22.371094 6.957031 22.382812 6.96875 22.394531 L 8.828125 24.234375 C 8.945312 24.351562 8.945312 24.539062 8.828125 24.65625 C 8.707031 24.773438 8.515625 24.773438 8.398438 24.65625 L 6.929688 23.203125 L 6.929688 25.746094 L 6.324219 25.746094 L 6.324219 23.226562 L 4.886719 24.648438 C 4.765625 24.765625 4.574219 24.765625 4.457031 24.648438 C 4.339844 24.535156 4.339844 24.34375 4.457031 24.226562 L 6.308594 22.394531 C 6.316406 22.390625 6.320312 22.382812 6.324219 22.378906 L 6.324219 21.3125 L 4.863281 22.757812 C 4.746094 22.875 4.554688 22.875 4.4375 22.757812 C 4.316406 22.640625 4.316406 22.449219 4.4375 22.332031 L 6.308594 20.480469 C 6.316406 20.476562 6.320312 20.472656 6.324219 20.464844 L 6.324219 19.398438 L 4.835938 20.871094 C 4.71875 20.988281 4.527344 20.988281 4.40625 20.871094 C 4.289062 20.753906 4.289062 20.566406 4.40625 20.449219 L 6.308594 18.566406 C 6.398438 18.480469 6.527344 18.457031 6.636719 18.5 C 6.75 18.457031 6.878906 18.480469 6.96875 18.566406 L 8.742188 20.324219 C 8.859375 20.4375 8.859375 20.628906 8.742188 20.746094 C 8.625 20.863281 8.433594 20.863281 8.316406 20.746094 L 6.929688 19.378906 L 6.929688 20.449219 C 6.945312 20.460938 6.957031 20.46875 6.96875 20.480469 L 8.792969 22.285156 C 8.910156 22.402344 8.910156 22.589844 8.792969 22.707031 C 8.675781 22.824219 8.480469 22.824219 8.363281 22.707031 L 6.929688 21.292969 Z M 6.929688 22.363281 "/>
<path style=" stroke:none;fill-rule:nonzero;fill:rgb(18.431373%,24.313725%,22.352941%);fill-opacity:1;" d="M 12.164062 23.75 L 12.164062 20.59375 L 13.578125 21.996094 C 13.679688 22.09375 13.847656 22.09375 13.949219 21.996094 C 14.050781 21.894531 14.050781 21.730469 13.949219 21.628906 L 12.226562 19.921875 L 12.164062 19.871094 L 12.164062 18.578125 L 13.589844 19.992188 C 13.691406 20.09375 13.859375 20.09375 13.960938 19.992188 C 14.0625 19.890625 14.066406 19.726562 13.964844 19.625 L 12.210938 17.9375 C 11.863281 17.648438 11.851562 17.648438 11.535156 17.976562 L 10.699219 18.792969 L 9.8125 19.671875 C 9.710938 19.773438 9.710938 19.9375 9.8125 20.039062 C 9.914062 20.140625 10.082031 20.140625 10.183594 20.039062 L 11.636719 18.597656 L 11.636719 19.882812 L 9.8125 21.6875 C 9.710938 21.789062 9.710938 21.953125 9.8125 22.054688 C 9.914062 22.15625 10.082031 22.15625 10.183594 22.054688 L 11.636719 20.613281 L 11.636719 23.75 Z M 12.164062 23.75 "/>
<path style=" stroke:none;fill-rule:nonzero;fill:rgb(18.431373%,24.313725%,22.352941%);fill-opacity:1;" d="M 4.175781 25.746094 L 25.855469 25.746094 C 26.003906 25.746094 26.121094 25.875 26.121094 26.03125 C 26.121094 26.183594 26.003906 26.3125 25.855469 26.3125 L 4.175781 26.3125 C 4.03125 26.3125 3.910156 26.1875 3.910156 26.03125 C 3.910156 25.875 4.03125 25.746094 4.175781 25.746094 Z M 4.175781 25.746094 "/>
<path style=" stroke:none;fill-rule:nonzero;fill:rgb(18.431373%,24.313725%,22.352941%);fill-opacity:1;" d="M 12.882812 12.542969 L 16.980469 12.542969 C 17.125 12.542969 17.246094 12.671875 17.246094 12.828125 C 17.246094 12.984375 17.125 13.113281 16.980469 13.113281 L 12.882812 13.113281 C 12.734375 13.113281 12.617188 12.984375 12.617188 12.828125 C 12.617188 12.671875 12.734375 12.542969 12.882812 12.542969 Z M 12.882812 12.542969 "/>
<path style=" stroke:none;fill-rule:nonzero;fill:rgb(18.431373%,24.313725%,22.352941%);fill-opacity:1;" d="M 9.035156 14.261719 L 16.878906 14.261719 C 17.027344 14.261719 17.144531 14.390625 17.144531 14.542969 C 17.144531 14.699219 17.023438 14.828125 16.878906 14.828125 L 9.035156 14.828125 C 8.890625 14.828125 8.769531 14.699219 8.769531 14.542969 C 8.769531 14.386719 8.890625 14.261719 9.035156 14.261719 Z M 9.035156 14.261719 "/>
<path style=" stroke:none;fill-rule:nonzero;fill:rgb(18.431373%,24.313725%,22.352941%);fill-opacity:1;" d="M 18.476562 14.261719 L 20.828125 14.261719 C 20.972656 14.261719 21.09375 14.390625 21.09375 14.542969 C 21.09375 14.699219 20.972656 14.828125 20.828125 14.828125 L 18.476562 14.828125 C 18.332031 14.828125 18.210938 14.699219 18.210938 14.542969 C 18.210938 14.386719 18.328125 14.261719 18.476562 14.261719 Z M 18.476562 14.261719 "/>
<path style=" stroke:none;fill-rule:nonzero;fill:rgb(18.431373%,24.313725%,22.352941%);fill-opacity:1;" d="M 18.050781 16.320312 L 10.207031 16.320312 C 10.0625 16.320312 9.941406 16.449219 9.941406 16.601562 C 9.941406 16.757812 10.0625 16.886719 10.207031 16.886719 L 18.050781 16.886719 C 18.199219 16.886719 18.320312 16.757812 18.320312 16.601562 C 18.320312 16.445312 18.199219 16.320312 18.050781 16.320312 Z M 18.050781 16.320312 "/>
<path style=" stroke:none;fill-rule:nonzero;fill:rgb(18.431373%,24.313725%,22.352941%);fill-opacity:1;" d="M 8.902344 16.320312 L 6.550781 16.320312 C 6.40625 16.320312 6.285156 16.449219 6.285156 16.601562 C 6.285156 16.757812 6.40625 16.886719 6.550781 16.886719 L 8.902344 16.886719 C 9.046875 16.886719 9.167969 16.757812 9.167969 16.601562 C 9.167969 16.445312 9.046875 16.320312 8.902344 16.320312 Z M 8.902344 16.320312 "/>
<path style=" stroke:none;fill-rule:nonzero;fill:rgb(18.431373%,24.313725%,22.352941%);fill-opacity:1;" d="M 9.320312 18.007812 L 8.125 18.007812 C 7.980469 18.007812 7.859375 18.136719 7.859375 18.289062 C 7.859375 18.445312 7.980469 18.574219 8.125 18.574219 L 9.320312 18.574219 C 9.464844 18.574219 9.585938 18.445312 9.585938 18.289062 C 9.585938 18.132812 9.464844 18.007812 9.320312 18.007812 Z M 9.320312 18.007812 "/>
<path style=" stroke:none;fill-rule:nonzero;fill:rgb(18.431373%,24.313725%,22.352941%);fill-opacity:1;" d="M 18.679688 17.917969 L 14.898438 17.917969 C 14.75 17.917969 14.632812 18.046875 14.632812 18.203125 C 14.632812 18.359375 14.753906 18.488281 14.898438 18.488281 L 18.679688 18.488281 C 18.824219 18.488281 18.945312 18.359375 18.945312 18.203125 C 18.945312 18.046875 18.824219 17.917969 18.679688 17.917969 Z M 18.679688 17.917969 "/>
<path style=" stroke:none;fill-rule:nonzero;fill:rgb(18.431373%,24.313725%,22.352941%);fill-opacity:1;" d="M 17.277344 20.007812 L 14.535156 20.007812 C 14.390625 20.007812 14.269531 20.132812 14.269531 20.289062 C 14.269531 20.445312 14.390625 20.574219 14.535156 20.574219 L 17.277344 20.574219 C 17.421875 20.574219 17.542969 20.445312 17.542969 20.289062 C 17.542969 20.132812 17.421875 20.007812 17.277344 20.007812 Z M 17.277344 20.007812 "/>
<path style=" stroke:none;fill-rule:nonzero;fill:rgb(18.431373%,24.313725%,22.352941%);fill-opacity:1;" d="M 24.65625 17.917969 L 22.753906 17.917969 C 22.609375 17.917969 22.488281 18.046875 22.488281 18.203125 C 22.488281 18.359375 22.609375 18.488281 22.753906 18.488281 L 24.65625 18.488281 C 24.804688 18.488281 24.921875 18.359375 24.921875 18.203125 C 24.921875 18.046875 24.804688 17.917969 24.65625 17.917969 Z M 24.65625 17.917969 "/>
<path style=" stroke:none;fill-rule:nonzero;fill:rgb(18.431373%,24.313725%,22.352941%);fill-opacity:1;" d="M 25.226562 20.007812 L 23.660156 20.007812 C 23.511719 20.007812 23.394531 20.132812 23.394531 20.289062 C 23.394531 20.445312 23.511719 20.574219 23.660156 20.574219 L 25.226562 20.574219 C 25.375 20.574219 25.492188 20.445312 25.492188 20.289062 C 25.492188 20.132812 25.375 20.007812 25.226562 20.007812 Z M 25.226562 20.007812 "/>
<path style=" stroke:none;fill-rule:nonzero;fill:rgb(18.431373%,24.313725%,22.352941%);fill-opacity:1;" d="M 12.992188 23.1875 L 10.78125 23.1875 C 10.632812 23.1875 10.515625 23.316406 10.515625 23.472656 C 10.515625 23.625 10.636719 23.753906 10.78125 23.753906 L 12.992188 23.753906 C 13.140625 23.753906 13.257812 23.625 13.257812 23.472656 C 13.257812 23.316406 13.140625 23.1875 12.992188 23.1875 Z M 12.992188 23.1875 "/>
<path style=" stroke:none;fill-rule:nonzero;fill:rgb(18.431373%,24.313725%,22.352941%);fill-opacity:1;" d="M 15.210938 23.171875 L 14.492188 23.171875 C 14.347656 23.171875 14.226562 23.300781 14.226562 23.453125 C 14.226562 23.609375 14.347656 23.738281 14.492188 23.738281 L 15.210938 23.738281 C 15.355469 23.738281 15.476562 23.609375 15.476562 23.453125 C 15.476562 23.296875 15.355469 23.171875 15.210938 23.171875 Z M 15.210938 23.171875 "/>
<path style=" stroke:none;fill-rule:nonzero;fill:rgb(18.431373%,24.313725%,22.352941%);fill-opacity:1;" d="M 13.535156 24.652344 L 9.839844 24.652344 C 9.695312 24.652344 9.574219 24.78125 9.574219 24.9375 C 9.574219 25.09375 9.695312 25.21875 9.839844 25.21875 L 13.535156 25.21875 C 13.683594 25.21875 13.800781 25.09375 13.800781 24.9375 C 13.800781 24.78125 13.683594 24.652344 13.535156 24.652344 Z M 13.535156 24.652344 "/>
</g>
</svg>
